# xmcd CD database file
#
# Track frame offsets:
#	150
#	27517
#	45572
#	149940
#	167995
#	208042
#
# Disc length: 2880 seconds
#
# Revision: 3
# Processed by: cddbd v1.5.2PL0 Copyright (c) Steve Scherf et al.
# Submitted via: CDex 1.51
#
DISCID=5d0b3e06
DTITLE=Simon M. Gray - the vanishing point
DYEAR=1994
DGENRE=New Age
TTITLE0=Raindrop Delta
TTITLE1=Shadow Play
TTITLE2=Audience, Light and Pictures
TTITLE3=Another June
TTITLE4=Seperate Ways
TTITLE5=Close
EXTD=excellent! YEAR: 1994
EXTT0=
EXTT1=
EXTT2=
EXTT3=pt.\nI: worlds in frames: three times\nII: silent room\nIII: fearful symmetries\nIV: waterline and virgin soil
EXTT4=
EXTT5=
PLAYORDER=
